<?xml version="1.0" encoding="utf-8"?>
<!-- Generator: Adobe Illustrator 20.0.0, SVG Export Plug-In . SVG Version: 6.00 Build 0)  -->
<svg version="1.1" xmlns="http://www.w3.org/2000/svg" xmlns:xlink="http://www.w3.org/1999/xlink" x="0px" y="0px" width="48px"
	 height="48px" viewBox="0 0 48 48" enable-background="new 0 0 48 48" xml:space="preserve">
<g id="Grid" display="none">
	<g display="inline">
		<g opacity="0.2">
			<path fill="#FF0000" d="M44,4v40H4V4H44 M48,0H0v48h48V0L48,0z"/>
		</g>
		<g opacity="0.2">
			<path fill="#00FF00" d="M43.5,8.5v31h-39v-31H43.5 M44,8H4v32h40V8L44,8z"/>
		</g>
		<g opacity="0.2">
			<path fill="#FF0000" d="M24,4.5c10.8,0,19.5,8.7,19.5,19.5c0,10.8-8.7,19.5-19.5,19.5C13.2,43.5,4.5,34.8,4.5,24
				C4.5,13.2,13.2,4.5,24,4.5 M24,4L24,4C13,4,4,13,4,24v0c0,11,9,20,20,20h0c11,0,20-9,20-20v0C44,13,35,4,24,4L24,4z"/>
		</g>
		<g opacity="0.2">
			<path fill="#0000FF" d="M39.5,8.5v31h-31v-31H39.5 M40,8H8v32h32V8L40,8z"/>
		</g>
		<g opacity="0.2">
			<path fill="#00FF00" d="M39.5,4.5v39h-31v-39H39.5 M40,4H8v40h32V4L40,4z"/>
		</g>
		<g opacity="0.2">
			<path fill="#0000FF" d="M33.5,14.5v19h-19v-19H33.5 M34,14H14v20h20V14L34,14z"/>
		</g>
	</g>
</g>
<g id="Icons">
	<g>
		<g>
			<rect x="5" y="19.4" fill="none" stroke="#000000" stroke-width="2" stroke-miterlimit="10" width="22.3" height="13.1"/>
			<g>
				<g>
					<path d="M12.7,23.5c-0.3-0.3-0.6-0.5-1-0.6c-0.2-0.1-0.8-0.1-1.6-0.1H8v6.6h1.3v-2.5h0.9c0.6,0,1.1,0,1.4-0.1
						c0.2-0.1,0.5-0.2,0.7-0.3c0.2-0.2,0.4-0.4,0.6-0.7c0.1-0.3,0.2-0.6,0.2-1C13,24.3,12.9,23.9,12.7,23.5z M11.5,25.3
						c-0.1,0.1-0.2,0.3-0.4,0.3c-0.2,0.1-0.5,0.1-1.1,0.1H9.3v-1.9H10c0.5,0,0.8,0,1,0c0.2,0,0.4,0.1,0.5,0.3
						c0.1,0.2,0.2,0.4,0.2,0.6C11.7,25,11.6,25.2,11.5,25.3z"/>
				</g>
			</g>
			<g>
				<g>
					<path d="M19.5,24.6c-0.1-0.4-0.4-0.8-0.6-1.1s-0.6-0.5-1-0.6c-0.3-0.1-0.7-0.1-1.3-0.1h-2.4v6.6h2.5c0.5,0,0.9,0,1.2-0.1
						c0.4-0.1,0.7-0.3,0.9-0.5c0.3-0.3,0.5-0.7,0.7-1.2c0.1-0.4,0.2-0.9,0.2-1.4C19.7,25.5,19.6,25,19.5,24.6z M18.2,27.3
						c-0.1,0.3-0.2,0.5-0.3,0.6c-0.1,0.1-0.3,0.2-0.5,0.3c-0.2,0-0.4,0.1-0.8,0.1h-1l0,0v-4.4h0.6c0.5,0,0.9,0,1.1,0.1
						c0.2,0.1,0.5,0.2,0.6,0.3c0.2,0.2,0.3,0.4,0.4,0.6s0.1,0.7,0.1,1.2C18.3,26.6,18.3,27,18.2,27.3z"/>
				</g>
			</g>
			<g>
				<g>
					<polygon points="25.3,23.9 25.3,22.8 20.8,22.8 20.8,29.4 22.1,29.4 22.1,26.6 24.9,26.6 24.9,25.5 22.1,25.5 22.1,23.9 					
						"/>
				</g>
			</g>
		</g>
		<g>
			<g>
				<polyline fill="none" stroke="#000000" stroke-width="2" stroke-miterlimit="10" points="15,33 15,43 43,43 43,11.7 36,5 15,5 
					15,19 				"/>
			</g>
			<polyline fill="none" stroke="#000000" stroke-width="2" stroke-miterlimit="10" points="43,11.7 36.3,11.7 36.3,5 			"/>
		</g>
	</g>
</g>
<g id="Titles" display="none">
	<rect x="34.3" y="24.8" display="inline" fill="none" width="51.2" height="29"/>
	<text transform="matrix(1 0 0 1 34.2516 29.2679)" display="inline" font-family="'BoschSans-Light'" font-size="6px">Delivery</text>
	<rect x="-33.7" y="18.8" display="inline" fill="none" width="57.5" height="37.1"/>
	<text transform="matrix(1 0 0 1 -33.7489 23.268)" display="inline"><tspan x="0" y="0" font-family="'BoschSans-Light'" font-size="6px">Adress/Consum</tspan><tspan x="51.4" y="0" font-family="'BoschSans-Light'" font-size="6px">-</tspan><tspan x="0" y="7.2" font-family="'BoschSans-Light'" font-size="6px">er Data</tspan></text>
</g>
</svg>
